<svg xmlns="http://www.w3.org/2000/svg" width="153.797" height="56.88" viewBox="0 0 153.797 56.88"><g transform="translate(-138.596 -231.156)"><path d="M8.837,52.88H8.725v-.33L0,26.657,5.913,8.82,8.725.336V0h132.55V.337l2.812,8.484L150,26.657l-8.725,25.891v.331Z" transform="translate(140.495 233.156)" fill="#fff"/><path d="M141.275,54.88H8.725L6.982,53.137l-.152.051L-1.9,27.3l0-1.268L6.725.013V0l.006-.006.1-.287.144.048L8.725-2h132.55L143.03-.245l.144-.048.095.286.007.007V.014L151.9,26.028l0,1.268L143.17,53.187l-.152-.051Zm-131-4H139.727l8.165-24.228L139.719,2H10.281L2.109,26.652Z" transform="translate(140.495 233.156)" fill="#fff"/></g></svg>